<svg width="53" height="33" viewBox="0 0 53 33" fill="none" xmlns="http://www.w3.org/2000/svg">
<g id="MasterCard">
<g id="Mastercard">
<path id="Left" fill-rule="evenodd" clip-rule="evenodd" d="M26.0756 28.5608C23.3138 30.9441 19.7312 32.3829 15.8164 32.3829C7.08124 32.3829 0 25.2195 0 16.3829C0 7.54638 7.08124 0.382935 15.8164 0.382935C19.7312 0.382935 23.3138 1.82172 26.0756 4.20509C28.8375 1.82172 32.4201 0.382935 36.3349 0.382935C45.0701 0.382935 52.1513 7.54638 52.1513 16.3829C52.1513 25.2195 45.0701 32.3829 36.3349 32.3829C32.4201 32.3829 28.8375 30.9441 26.0756 28.5608Z" fill="#ED0006"/>
<path id="Right" fill-rule="evenodd" clip-rule="evenodd" d="M26.0757 28.5609C29.4764 25.6262 31.6328 21.2594 31.6328 16.3831C31.6328 11.5067 29.4764 7.13991 26.0757 4.20522C28.8376 1.82185 32.4201 0.383057 36.3349 0.383057C45.0701 0.383057 52.1513 7.5465 52.1513 16.3831C52.1513 25.2196 45.0701 32.3831 36.3349 32.3831C32.4201 32.3831 28.8376 30.9443 26.0757 28.5609Z" fill="#F9A000"/>
<path id="Middle" fill-rule="evenodd" clip-rule="evenodd" d="M26.0756 28.5608C29.4763 25.6261 31.6327 21.2593 31.6327 16.383C31.6327 11.5067 29.4763 7.13989 26.0756 4.2052C22.6749 7.13989 20.5186 11.5067 20.5186 16.383C20.5186 21.2593 22.6749 25.6261 26.0756 28.5608Z" fill="#FF5E00"/>
</g>
</g>
</svg>
